<svg id="instagram-logo" xmlns="http://www.w3.org/2000/svg" width="24.539" height="24.54" viewBox="0 0 24.539 24.54">
  <path id="Path_2989" data-name="Path 2989" d="M17.767,0h-11A6.78,6.78,0,0,0,0,6.772v11A6.78,6.78,0,0,0,6.772,24.54h11a6.78,6.78,0,0,0,6.772-6.772v-11A6.78,6.78,0,0,0,17.767,0Zm4.6,17.768a4.6,4.6,0,0,1-4.595,4.595h-11a4.6,4.6,0,0,1-4.595-4.595v-11A4.6,4.6,0,0,1,6.772,2.177h11a4.6,4.6,0,0,1,4.595,4.595v11Z" fill="#aaa"/>
  <path id="Path_2990" data-name="Path 2990" d="M47.291,40.97a6.323,6.323,0,1,0,6.323,6.323A6.33,6.33,0,0,0,47.291,40.97Zm0,10.469a4.146,4.146,0,1,1,4.146-4.146A4.151,4.151,0,0,1,47.291,51.439Z" transform="translate(-35.021 -35.023)" fill="#aaa"/>
  <path id="Path_2991" data-name="Path 2991" d="M120.518,28.251a1.6,1.6,0,1,0,1.129.467A1.6,1.6,0,0,0,120.518,28.251Z" transform="translate(-101.659 -24.15)" fill="#aaa"/>
</svg>
