<svg id="_34227" data-name="34227" xmlns="http://www.w3.org/2000/svg" width="24.631" height="23.536" viewBox="0 0 24.631 23.536">
  <path id="LinkedIn" d="M24.63,23.988v9.106H19.351V24.6c0-2.134-.764-3.591-2.674-3.591a2.889,2.889,0,0,0-2.709,1.931,3.612,3.612,0,0,0-.175,1.287v8.869H8.512s.071-14.39,0-15.881h5.28v2.251c-.011.017-.025.035-.035.051h.035v-.051a5.243,5.243,0,0,1,4.759-2.624C22.026,16.84,24.63,19.11,24.63,23.988ZM2.988,9.558a2.752,2.752,0,1,0-.07,5.489h.035a2.753,2.753,0,1,0,.035-5.489ZM.314,33.094H5.593V17.213H.314Z" transform="translate(0 -9.558)" fill="#aaa"/>
</svg>
