<svg xmlns="http://www.w3.org/2000/svg" xmlns:xlink="http://www.w3.org/1999/xlink" width="52.109" height="81.02" viewBox="0 0 52.109 81.02">
  <defs>
    <linearGradient id="linear-gradient" x1="1" y1="0.718" x2="0.363" y2="0.549" gradientUnits="objectBoundingBox">
      <stop offset="0" stop-color="#5636e0"/>
      <stop offset="1" stop-color="#4d63fd"/>
    </linearGradient>
  </defs>
  <g id="lock" opacity="0.496">
    <path id="Path_2978" data-name="Path 2978" d="M26.055,0A19.832,19.832,0,0,0,6.246,19.809V38.059a26.055,26.055,0,1,0,39.617,0V19.809A19.832,19.832,0,0,0,26.055,0Zm0,2.141A17.687,17.687,0,0,1,43.722,19.809V35.834A26.175,26.175,0,0,0,40.51,33.3V19.809a14.455,14.455,0,1,0-28.91,0V33.3a26.309,26.309,0,0,0-3.212,2.534V19.809A17.687,17.687,0,0,1,26.055,2.141ZM38.368,32.009a26.014,26.014,0,0,0-24.627,0v-12.2a12.314,12.314,0,1,1,24.627,0ZM26.055,78.878A23.913,23.913,0,1,1,49.968,54.965,23.941,23.941,0,0,1,26.055,78.878Zm0,0" fill="url(#linear-gradient)"/>
    <path id="Path_2979" data-name="Path 2979" d="M144.77,408.623a18.478,18.478,0,0,1-3.7.373,1.071,1.071,0,1,0,0,2.141,20.593,20.593,0,0,0,4.129-.416,1.071,1.071,0,1,0-.429-2.1Zm0,0" transform="translate(-115.016 -335.681)" fill="url(#linear-gradient)"/>
    <path id="Path_2980" data-name="Path 2980" d="M183.9,319.907a1.071,1.071,0,1,0,.854,1.963,20.494,20.494,0,0,0,12.325-18.8,1.071,1.071,0,0,0-2.141,0A18.355,18.355,0,0,1,183.9,319.907Zm0,0" transform="translate(-150.537 -248.106)" fill="url(#linear-gradient)"/>
    <path id="Path_2981" data-name="Path 2981" d="M121.32,195.633a1.069,1.069,0,0,0,.194-.018,18.49,18.49,0,0,1,3.333-.3,1.071,1.071,0,1,0,0-2.141,20.664,20.664,0,0,0-3.719.337,1.071,1.071,0,0,0,.192,2.124Zm0,0" transform="translate(-98.792 -158.699)" fill="url(#linear-gradient)"/>
    <path id="Path_2982" data-name="Path 2982" d="M45.09,202.375a1.071,1.071,0,0,0-1.4-.57,20.464,20.464,0,0,0-12.515,18.882,1.071,1.071,0,0,0,2.141,0,18.325,18.325,0,0,1,11.208-16.909A1.07,1.07,0,0,0,45.09,202.375Zm0,0" transform="translate(-25.609 -165.723)" fill="url(#linear-gradient)"/>
    <path id="Path_2983" data-name="Path 2983" d="M116.075,276.818a1.07,1.07,0,0,0-1.514,0l-8.343,8.343-4.42-4.419a1.071,1.071,0,1,0-1.514,1.514l5.176,5.176a1.071,1.071,0,0,0,1.515,0l9.1-9.1A1.07,1.07,0,0,0,116.075,276.818Zm0,0" transform="translate(-82.125 -227.16)" fill="url(#linear-gradient)"/>
  </g>
</svg>
