<?xml version="1.0" encoding="UTF-8"?>
<svg width="32px" height="29px" viewBox="0 0 32 29" version="1.1" xmlns="http://www.w3.org/2000/svg" xmlns:xlink="http://www.w3.org/1999/xlink">
    <!-- Generator: Sketch 55.2 (78181) - https://sketchapp.com -->
    <title>ic_meeting</title>
    <desc>Created with Sketch.</desc>
    <defs>
        <path d="M3.125,2.5 C2.780625,2.5 2.5,2.780625 2.5,3.125 L2.5,11.61625 L3.933125,10.183125 C4.05,10.065625 4.209375,10 4.375,10 L11.875,10 C12.22,10 12.5,9.72 12.5,9.375 L12.5,3.125 C12.5,2.780625 12.22,2.5 11.875,2.5 L3.125,2.5 Z M1.635625,13.7025 C1.4025,13.60625 1.25,13.3775 1.25,13.125 L1.25,3.125 C1.25,2.09125 2.09125,1.25 3.125,1.25 L11.875,1.25 C12.90875,1.25 13.75,2.09125 13.75,3.125 L13.75,9.375 C13.75,10.40875 12.90875,11.25 11.875,11.25 L4.63375,11.25 L2.316875,13.566875 C2.1975,13.68625 2.0375,13.75 1.875,13.75 C1.794375,13.75 1.713125,13.735 1.635625,13.7025 Z" id="path-1"></path>
        <path d="M13.3333333,11.6666667 C15.6308333,11.6666667 17.5,13.5358333 17.5,15.8333333 L17.5,17.5 C17.5,17.9608333 17.1275,18.3333333 16.6666667,18.3333333 C16.2058333,18.3333333 15.8333333,17.9608333 15.8333333,17.5 L15.8333333,15.8333333 C15.8333333,14.455 14.7116667,13.3333333 13.3333333,13.3333333 L6.66666667,13.3333333 C5.28833333,13.3333333 4.16666667,14.455 4.16666667,15.8333333 L4.16666667,17.5 C4.16666667,17.9608333 3.79333333,18.3333333 3.33333333,18.3333333 C2.87333333,18.3333333 2.5,17.9608333 2.5,17.5 L2.5,15.8333333 C2.5,13.5358333 4.36916667,11.6666667 6.66666667,11.6666667 L13.3333333,11.6666667 Z M10,3.33333333 C8.62166667,3.33333333 7.5,4.455 7.5,5.83333333 C7.5,7.21166667 8.62166667,8.33333333 10,8.33333333 C11.3783333,8.33333333 12.5,7.21166667 12.5,5.83333333 C12.5,4.455 11.3783333,3.33333333 10,3.33333333 Z M10,10 C7.7025,10 5.83333333,8.13083333 5.83333333,5.83333333 C5.83333333,3.53583333 7.7025,1.66666667 10,1.66666667 C12.2975,1.66666667 14.1666667,3.53583333 14.1666667,5.83333333 C14.1666667,8.13083333 12.2975,10 10,10 Z" id="path-3"></path>
        <path d="M13.3333333,11.6666667 C15.6308333,11.6666667 17.5,13.5358333 17.5,15.8333333 L17.5,17.5 C17.5,17.9608333 17.1275,18.3333333 16.6666667,18.3333333 C16.2058333,18.3333333 15.8333333,17.9608333 15.8333333,17.5 L15.8333333,15.8333333 C15.8333333,14.455 14.7116667,13.3333333 13.3333333,13.3333333 L6.66666667,13.3333333 C5.28833333,13.3333333 4.16666667,14.455 4.16666667,15.8333333 L4.16666667,17.5 C4.16666667,17.9608333 3.79333333,18.3333333 3.33333333,18.3333333 C2.87333333,18.3333333 2.5,17.9608333 2.5,17.5 L2.5,15.8333333 C2.5,13.5358333 4.36916667,11.6666667 6.66666667,11.6666667 L13.3333333,11.6666667 Z M10,3.33333333 C8.62166667,3.33333333 7.5,4.455 7.5,5.83333333 C7.5,7.21166667 8.62166667,8.33333333 10,8.33333333 C11.3783333,8.33333333 12.5,7.21166667 12.5,5.83333333 C12.5,4.455 11.3783333,3.33333333 10,3.33333333 Z M10,10 C7.7025,10 5.83333333,8.13083333 5.83333333,5.83333333 C5.83333333,3.53583333 7.7025,1.66666667 10,1.66666667 C12.2975,1.66666667 14.1666667,3.53583333 14.1666667,5.83333333 C14.1666667,8.13083333 12.2975,10 10,10 Z" id="path-5"></path>
    </defs>
    <g id="Page-1" stroke="none" stroke-width="1" fill="none" fill-rule="evenodd">
        <g id="request-page" transform="translate(-103.000000, -736.000000)">
            <g id="هذـوثثفهرل" transform="translate(101.000000, 735.000000)">
                <g id="Group">
                    <g id="Icon/Chat/Message-Square" transform="translate(14.000000, 0.000000)">
                        <mask id="mask-2" fill="white">
                            <use xlink:href="#path-1"></use>
                        </mask>
                        <use id="Icon-Message-Square" fill="#9F9FAF" fill-rule="evenodd" xlink:href="#path-1"></use>
                    </g>
                    <g id="Group-3" transform="translate(0.000000, 11.000000)">
                        <g id="Icon/User/User" transform="translate(16.000000, 0.000000)">
                            <mask id="mask-4" fill="white">
                                <use xlink:href="#path-3"></use>
                            </mask>
                            <use id="Icon-User" fill="#9F9FAF" fill-rule="evenodd" xlink:href="#path-3"></use>
                        </g>
                        <g id="Icon/User/User">
                            <mask id="mask-6" fill="white">
                                <use xlink:href="#path-5"></use>
                            </mask>
                            <use id="Icon-User" fill="#9F9FAF" fill-rule="evenodd" xlink:href="#path-5"></use>
                        </g>
                    </g>
                </g>
            </g>
        </g>
    </g>
</svg>