<svg xmlns="http://www.w3.org/2000/svg" xmlns:xlink="http://www.w3.org/1999/xlink" width="78" height="72.877" viewBox="0 0 78 72.877">
  <defs>
    <linearGradient id="linear-gradient" x1="0.415" y1="0.561" x2="1" y2="1" gradientUnits="objectBoundingBox">
      <stop offset="0" stop-color="#4d63fd"/>
      <stop offset="1" stop-color="#5636e0"/>
    </linearGradient>
  </defs>
  <g id="message" transform="translate(0 -16.814)" opacity="0.497">
    <g id="Group_1859" data-name="Group 1859" transform="translate(0 16.814)">
      <g id="Group_1858" data-name="Group 1858" transform="translate(0 0)">
        <path id="Path_2984" data-name="Path 2984" d="M77.94,44.356a1.151,1.151,0,0,0-.072-.4,1.991,1.991,0,0,0-.785-1.109L65.918,35.088v-8.32a2,2,0,0,0-2-2H51.075l-10.93-7.6a2,2,0,0,0-2.275,0l-11,7.6H14.081a2,2,0,0,0-2,2v8.222L.863,42.745A1.993,1.993,0,0,0,0,44.36c0,.012,0,.023,0,.035L.06,87.7a2,2,0,0,0,2,1.995h0l73.945-.1a2,2,0,0,0,1.995-2Zm-12.023-4.4L72.3,44.39l-6.383,4.437ZM39,21.243l5.075,3.528H33.9ZM16.078,28.766H61.923v22.84L46.53,62.306l-6.276-4.868-.028-.019a2,2,0,0,0-2.421.019l-6.321,4.9L16.078,51.693Zm-4,11.081v9.086L5.51,44.39ZM4,48.2,28.172,64.91,4.049,83.622ZM7.9,85.688,39.03,61.544,70.046,85.6ZM49.838,64.872,73.951,48.109,74,83.614Z" transform="translate(0 -16.814)" fill="url(#linear-gradient)"/>
      </g>
    </g>
    <g id="Group_1861" data-name="Group 1861" transform="translate(23.48 36.756)">
      <g id="Group_1860" data-name="Group 1860">
        <path id="Path_2985" data-name="Path 2985" d="M183.166,147.713H156.12a2,2,0,0,0,0,4h27.047a2,2,0,0,0,0-4Z" transform="translate(-154.122 -147.713)" fill="url(#linear-gradient)"/>
      </g>
    </g>
    <g id="Group_1863" data-name="Group 1863" transform="translate(23.48 47.143)">
      <g id="Group_1862" data-name="Group 1862">
        <path id="Path_2986" data-name="Path 2986" d="M183.166,215.9H156.12a2,2,0,0,0,0,4h27.047a2,2,0,0,0,0-4Z" transform="translate(-154.122 -215.895)" fill="url(#linear-gradient)"/>
      </g>
    </g>
  </g>
</svg>
