<svg id="twitter" xmlns="http://www.w3.org/2000/svg" width="25.252" height="20.517" viewBox="0 0 25.252 20.517">
  <g id="Group_1865" data-name="Group 1865" transform="translate(0 0)">
    <path id="Path_2988" data-name="Path 2988" d="M25.252,50.429a10.793,10.793,0,0,1-2.983.818,5.148,5.148,0,0,0,2.277-2.861,10.346,10.346,0,0,1-3.283,1.253,5.177,5.177,0,0,0-8.955,3.54,5.331,5.331,0,0,0,.12,1.181A14.653,14.653,0,0,1,1.758,48.944a5.178,5.178,0,0,0,1.591,6.919,5.113,5.113,0,0,1-2.339-.638v.057a5.2,5.2,0,0,0,4.148,5.087,5.167,5.167,0,0,1-1.357.17,4.577,4.577,0,0,1-.98-.088,5.226,5.226,0,0,0,4.837,3.606,10.4,10.4,0,0,1-6.419,2.208A9.7,9.7,0,0,1,0,66.194a14.574,14.574,0,0,0,7.942,2.323A14.633,14.633,0,0,0,22.676,53.786c0-.229-.008-.45-.019-.669A10.328,10.328,0,0,0,25.252,50.429Z" transform="translate(0 -48)" fill="#aaa"/>
  </g>
</svg>
